<?xml version="1.0" standalone="no"?>
<!DOCTYPE svg PUBLIC "-//W3C//DTD SVG 20010904//EN"
 "http://www.w3.org/TR/2001/REC-SVG-20010904/DTD/svg10.dtd">
<svg version="1.0" xmlns="http://www.w3.org/2000/svg"
 width="300.000000pt" height="300.000000pt" viewBox="0 0 300.000000 300.000000"
 preserveAspectRatio="xMidYMid meet">
<metadata>
Created by potrace 1.10, written by Peter Selinger 2001-2011
</metadata>
<g transform="translate(0.000000,300.000000) scale(0.100000,-0.100000)"
fill="#000000" stroke="none">
<path d="M1225 2973 c-99 -17 -197 -46 -295 -86 -41 -16 -76 -31 -78 -32 -6
-5 22 -55 30 -55 5 0 25 8 46 19 55 28 216 77 317 97 64 13 138 18 255 18 117
0 191 -5 255 -18 108 -21 262 -69 327 -102 l47 -24 16 29 15 30 -47 21 c-88
40 -247 88 -343 103 -121 20 -432 20 -545 0z"/>
<path d="M1289 2785 c-91 -15 -168 -37 -270 -76 l-76 -29 85 -154 85 -154 62
23 c213 81 478 73 706 -20 13 -5 33 25 98 144 44 82 81 152 81 155 0 6 -138
59 -210 80 -150 45 -399 58 -561 31z m461 -49 c79 -17 215 -60 240 -76 13 -8
8 -22 -30 -95 -25 -47 -54 -97 -66 -112 l-21 -27 -74 22 c-130 37 -191 45
-336 39 -101 -3 -160 -10 -218 -27 -122 -34 -112 -38 -177 75 -32 55 -58 106
-58 113 0 25 177 81 322 102 90 13 330 4 418 -14z"/>
<path d="M620 2714 c-107 -81 -165 -134 -243 -222 -67 -76 -172 -220 -166
-226 2 -2 15 -9 29 -16 21 -11 26 -11 35 5 73 126 255 320 387 414 71 50 75
56 65 78 -5 12 -15 23 -21 23 -6 0 -45 -25 -86 -56z"/>
<path d="M2281 2743 c-11 -24 -10 -29 4 -38 96 -57 244 -190 331 -299 154
-191 251 -403 300 -651 25 -124 25 -386 0 -510 -57 -291 -181 -531 -382 -745
l-62 -65 26 -19 26 -20 58 65 c112 122 188 233 258 374 115 232 148 381 148
665 0 284 -33 433 -148 665 -78 157 -163 277 -281 394 -69 70 -244 211 -260
211 -3 0 -11 -12 -18 -27z"/>
<path d="M739 2557 c-104 -79 -123 -98 -113 -112 5 -7 54 -69 108 -138 l100
-126 40 37 c23 21 54 47 70 58 l29 21 -83 151 c-45 84 -85 152 -89 152 -3 0
-31 -20 -62 -43z m120 -135 c28 -50 51 -98 51 -106 0 -15 -55 -66 -71 -66 -12
0 -159 186 -159 202 0 7 24 30 52 51 62 44 57 47 127 -81z"/>
<path d="M2171 2543 c-16 -32 -54 -102 -84 -155 l-55 -98 46 -34 c59 -43 168
-156 209 -216 49 -73 101 -183 130 -277 24 -80 27 -103 27 -258 1 -149 -2
-180 -22 -250 -31 -108 -100 -249 -163 -330 l-51 -67 123 -124 123 -123 28 32
c15 18 54 70 87 117 275 398 307 910 84 1342 -95 186 -223 331 -410 468 l-42
31 -30 -58z m117 -58 c134 -101 262 -262 349 -442 200 -413 153 -928 -119
-1287 -29 -39 -59 -72 -66 -74 -15 -5 -182 155 -182 174 0 8 27 54 59 104 60
91 104 190 137 310 15 51 18 101 18 235 0 156 -2 177 -27 260 -57 187 -134
313 -275 452 l-93 91 61 111 c34 61 65 111 70 111 4 0 35 -20 68 -45z"/>
<path d="M1360 2294 c-41 -7 -98 -21 -127 -31 l-51 -18 59 -105 c32 -58 60
-109 62 -114 1 -4 27 -1 57 8 69 20 204 21 282 0 33 -8 61 -14 63 -12 10 13
115 210 115 217 0 11 -135 50 -212 62 -85 12 -158 10 -248 -7z m317 -50 c40
-8 75 -19 78 -24 7 -11 -48 -121 -68 -138 -11 -9 -26 -10 -58 -3 -56 13 -202
13 -254 1 -36 -9 -42 -7 -59 13 -27 33 -68 116 -61 127 8 13 76 30 155 40 79
10 171 4 267 -16z"/>
<path d="M948 2116 c-169 -170 -272 -443 -254 -673 12 -144 58 -279 137 -395
45 -66 132 -158 186 -196 l31 -22 61 109 60 110 -63 64 c-138 141 -190 344
-135 523 38 123 108 246 170 298 17 14 29 29 27 34 -11 25 -142 212 -149 212
-4 0 -36 -29 -71 -64z m121 -69 c22 -35 41 -68 41 -74 0 -6 -18 -33 -41 -59
-54 -65 -114 -185 -140 -281 -51 -185 8 -408 140 -538 23 -21 41 -46 41 -55
-1 -22 -63 -133 -77 -138 -18 -5 -108 82 -159 155 -98 136 -137 263 -138 443
0 108 4 138 28 219 31 105 60 168 119 255 55 82 106 136 127 136 11 0 34 -25
59 -63z"/>
<path d="M321 2050 c-28 -60 -51 -113 -51 -118 0 -4 17 -14 38 -21 20 -8 93
-38 161 -67 115 -49 124 -51 128 -33 3 11 21 52 40 91 27 58 31 74 21 83 -15
14 -273 175 -280 175 -3 0 -28 -49 -57 -110z m181 -12 c55 -35 103 -69 106
-76 3 -8 -5 -34 -17 -59 -20 -40 -25 -45 -49 -40 -49 10 -204 79 -209 94 -8
19 48 143 64 143 3 0 50 -28 105 -62z"/>
<path d="M1902 2051 l-61 -110 59 -60 c99 -101 150 -231 150 -381 0 -151 -51
-280 -152 -383 l-60 -61 33 -61 c18 -33 45 -81 59 -107 14 -26 28 -48 32 -48
4 0 34 22 66 49 114 95 208 246 253 406 32 112 32 297 1 407 -45 160 -111 270
-230 386 -41 39 -78 72 -82 72 -4 0 -35 -49 -68 -109z m156 -26 c282 -301 277
-767 -10 -1060 -79 -80 -73 -81 -129 28 l-29 57 39 43 c52 57 103 140 131 212
28 74 38 232 20 318 -16 78 -80 204 -136 266 -35 39 -45 57 -40 74 10 39 66
127 80 127 8 0 41 -29 74 -65z"/>
<path d="M62 1928 c-38 -132 -50 -234 -50 -428 0 -272 32 -427 134 -639 118
-246 277 -436 499 -592 l69 -50 14 27 c7 14 12 27 10 29 -2 2 -39 30 -83 62
-256 189 -429 429 -524 725 -51 160 -65 255 -65 438 0 172 14 272 55 407 20
64 20 67 3 80 -32 23 -41 14 -62 -59z"/>
<path d="M1411 1969 c-30 -5 -57 -12 -60 -14 -3 -3 8 -30 24 -60 28 -51 31
-53 60 -47 38 9 90 9 136 0 34 -6 36 -5 63 44 16 28 24 54 20 58 -10 10 -127
30 -164 29 -14 -1 -49 -5 -79 -10z m177 -56 c-3 -15 -15 -18 -78 -18 -74 0
-105 9 -94 26 3 5 43 9 90 9 76 0 85 -2 82 -17z"/>
<path d="M1147 1819 c-59 -67 -96 -145 -115 -241 -14 -70 -14 -86 0 -156 20
-100 58 -178 123 -249 l51 -57 31 55 30 54 -33 39 c-70 82 -103 193 -85 290
13 72 31 111 75 170 l38 49 -25 46 c-14 25 -30 47 -35 49 -5 1 -30 -20 -55
-49z m59 -33 c3 -8 -8 -33 -25 -56 -96 -133 -96 -327 -1 -459 33 -45 38 -71
15 -71 -22 0 -82 87 -105 154 -43 128 -20 295 55 399 36 49 52 57 61 33z"/>
<path d="M1768 1823 l-35 -49 33 -38 c19 -22 43 -58 55 -82 11 -24 23 -44 26
-44 3 0 29 7 59 16 l53 15 -17 37 c-25 55 -77 133 -110 165 l-29 28 -35 -48z
m90 -78 c31 -46 39 -81 17 -79 -16 1 -88 111 -80 124 11 18 28 7 63 -45z"/>
<path d="M1362 1739 c-102 -50 -155 -136 -155 -249 -1 -255 307 -385 485 -205
59 59 83 118 83 200 0 217 -218 352 -413 254z m228 -30 c95 -43 143 -116 144
-219 0 -121 -74 -215 -190 -241 -174 -39 -330 117 -293 292 11 53 54 119 94
145 72 47 172 56 245 23z"/>
<path d="M214 1719 c-4 -6 -9 -82 -11 -168 -6 -186 10 -303 62 -460 86 -256
242 -473 456 -634 71 -53 99 -67 99 -49 0 4 36 72 80 151 44 80 79 145 77 146
-60 31 -193 157 -252 240 -59 82 -110 188 -142 292 -25 81 -27 102 -27 266 -1
97 -2 177 -3 177 -8 0 -293 42 -310 45 -12 3 -25 0 -29 -6z m176 -57 l115 -18
6 -159 c8 -186 27 -271 93 -410 64 -135 160 -255 290 -363 17 -15 25 -29 22
-39 -15 -39 -118 -213 -126 -213 -17 0 -157 118 -219 186 -222 242 -339 553
-329 881 3 119 9 154 26 153 4 -1 59 -9 122 -18z"/>
<path d="M1890 1533 c-34 -4 -35 -5 -36 -53 -3 -69 -28 -137 -74 -197 l-39
-52 26 -48 c15 -26 28 -50 31 -53 9 -10 100 102 126 156 28 58 56 165 56 222
0 35 0 35 -90 25z m34 -104 c-1 -57 -32 -132 -81 -197 -20 -27 -27 -31 -39
-21 -12 10 -12 15 3 38 37 55 72 133 83 187 15 71 35 67 34 -7z"/>
<path d="M1380 1103 c-17 -30 -30 -57 -28 -58 2 -2 35 -9 73 -15 53 -9 89 -8
148 1 42 6 79 14 81 18 3 4 -9 30 -26 59 -21 37 -35 51 -47 48 -46 -14 -90
-16 -128 -8 l-42 10 -31 -55z m205 -5 c18 -18 -13 -28 -86 -28 -76 0 -90 5
-69 26 10 10 145 12 155 2z"/>
<path d="M1250 868 c-46 -84 -58 -113 -48 -119 7 -4 49 -18 93 -31 121 -33
306 -31 430 6 49 15 91 29 93 31 3 3 -117 225 -121 225 -1 0 -27 -7 -57 -15
-71 -19 -213 -19 -276 0 -27 8 -50 15 -50 15 -1 0 -30 -50 -64 -112z m469 -8
c17 -32 31 -65 31 -73 0 -41 -286 -68 -410 -38 -97 24 -96 22 -53 102 l38 71
70 -9 c78 -9 181 -7 235 6 19 4 40 6 46 4 7 -3 26 -31 43 -63z"/>
<path d="M2080 744 c-25 -20 -44 -41 -42 -47 2 -6 37 -71 78 -145 41 -75 74
-139 74 -144 0 -4 3 -8 7 -8 7 0 104 71 149 110 l32 27 -122 122 c-67 66 -123
121 -126 121 -3 0 -25 -16 -50 -36z m145 -115 l90 -90 -40 -34 c-22 -19 -47
-35 -55 -35 -14 0 -130 195 -130 218 0 11 22 32 35 32 6 0 51 -41 100 -91z"/>
<path d="M1820 604 c-36 -13 -64 -28 -62 -34 1 -6 21 -82 44 -169 l42 -159 65
23 c67 23 151 56 151 59 0 1 -36 67 -80 146 -44 79 -80 148 -80 152 0 11 -5
10 -80 -18z m114 -134 c31 -55 56 -107 56 -116 0 -15 -40 -36 -92 -49 -29 -8
-31 -5 -74 164 -18 72 -18 73 1 87 38 28 51 17 109 -86z"/>
<path d="M1031 470 c-45 -83 -81 -153 -79 -155 1 -2 57 -21 123 -44 133 -45
273 -71 380 -71 l70 0 -7 92 c-3 51 -7 129 -7 174 l-1 81 -92 6 c-57 3 -126
16 -178 32 -47 14 -94 28 -105 31 -18 5 -32 -16 -104 -146z m195 75 c48 -14
117 -28 155 -31 38 -4 73 -12 78 -18 5 -6 12 -64 15 -129 7 -106 6 -118 -10
-124 -42 -16 -309 34 -408 77 -37 15 -44 23 -38 37 12 32 112 213 117 213 3 0
44 -11 91 -25z"/>
<path d="M866 172 l-15 -28 94 -37 c118 -47 278 -85 380 -92 44 -3 108 -8 143
-11 l62 -5 0 29 0 29 -106 7 c-172 11 -387 62 -496 117 -47 24 -45 24 -62 -9z"/>
<path d="M2056 175 c-26 -13 -77 -31 -112 -42 -64 -18 -64 -18 -58 -48 3 -16
7 -31 9 -33 3 -4 160 52 217 78 48 21 48 21 32 45 -20 30 -25 30 -88 0z"/>
</g>
</svg>
