<?xml version="1.0" standalone="no"?>
<!DOCTYPE svg PUBLIC "-//W3C//DTD SVG 20010904//EN"
 "http://www.w3.org/TR/2001/REC-SVG-20010904/DTD/svg10.dtd">
<svg version="1.0" xmlns="http://www.w3.org/2000/svg"
 width="300.000000pt" height="300.000000pt" viewBox="0 0 300.000000 300.000000"
 preserveAspectRatio="xMidYMid meet">
<metadata>
Created by potrace 1.10, written by Peter Selinger 2001-2011
</metadata>
<g transform="translate(0.000000,300.000000) scale(0.100000,-0.100000)"
fill="#000000" stroke="none">
<path d="M1358 2993 c18 -2 45 -2 60 0 15 2 0 4 -33 4 -33 0 -45 -2 -27 -4z"/>
<path d="M1588 2993 c18 -2 45 -2 60 0 15 2 0 4 -33 4 -33 0 -45 -2 -27 -4z"/>
<path d="M1428 2933 c39 -2 105 -2 145 0 39 1 7 3 -73 3 -80 0 -112 -2 -72 -3z"/>
<path d="M1135 2895 c-54 -17 -33 -18 30 -1 28 8 41 14 30 14 -11 0 -38 -5
-60 -13z"/>
<path d="M935 2826 c-66 -32 -53 -33 16 -2 30 14 50 25 44 25 -5 1 -32 -10
-60 -23z"/>
<path d="M2049 2824 c30 -13 56 -23 58 -20 4 4 -92 46 -104 45 -4 0 16 -11 46
-25z"/>
<path d="M1458 2803 c23 -2 61 -2 85 0 23 2 4 4 -43 4 -47 0 -66 -2 -42 -4z"/>
<path d="M680 2762 c-143 -94 -316 -262 -407 -394 -70 -100 -71 -104 -36 -122
l29 -15 53 80 c86 131 296 335 408 397 14 9 15 14 3 41 -14 35 -16 36 -50 13z
m50 -32 c0 -4 -39 -36 -88 -72 -108 -81 -262 -240 -329 -340 -50 -76 -58 -80
-92 -51 -3 2 22 43 55 91 72 107 242 280 349 355 72 50 81 54 93 40 6 -9 12
-20 12 -23z"/>
<path d="M1134 2755 c-45 -13 -107 -35 -138 -49 l-57 -25 21 -41 c11 -22 23
-40 25 -40 3 0 -4 18 -15 39 l-19 39 66 27 c37 15 106 37 153 50 47 13 76 24
65 24 -11 0 -57 -11 -101 -24z"/>
<path d="M2280 2751 c-16 -32 -13 -37 55 -86 149 -106 317 -290 400 -440 20
-36 39 -65 42 -65 8 0 -56 111 -105 180 -65 92 -218 247 -312 316 -81 60 -87
68 -70 94 7 12 22 6 82 -35 112 -76 282 -251 363 -376 39 -58 76 -114 83 -125
7 -10 5 -3 -4 16 -46 96 -165 250 -276 356 -77 74 -220 184 -239 184 -5 0 -13
-9 -19 -19z"/>
<path d="M1925 2726 c50 -18 101 -38 113 -45 13 -7 26 -11 28 -8 9 8 -194 88
-220 87 -6 -1 30 -16 79 -34z"/>
<path d="M1980 2528 c-40 -73 -75 -136 -77 -140 -2 -5 -2 -8 0 -8 4 0 41 66
154 273 2 4 2 7 0 7 -3 0 -38 -60 -77 -132z"/>
<path d="M745 2566 c-28 -18 -69 -51 -92 -72 l-43 -39 111 -138 c78 -98 114
-136 122 -129 42 32 133 106 137 110 13 15 -60 -35 -101 -69 l-46 -38 -73 92
c-41 51 -89 111 -107 134 l-34 41 68 54 c38 29 80 61 93 70 14 9 23 17 20 17
-3 1 -28 -14 -55 -33z"/>
<path d="M2194 2589 c-4 -7 -3 -9 4 -5 16 9 157 -101 239 -187 154 -162 258
-347 318 -567 13 -47 24 -78 24 -69 2 36 -53 199 -98 295 -27 55 -72 136 -101
180 -83 122 -239 277 -352 348 -20 13 -28 14 -34 5z"/>
<path d="M855 2505 c26 -49 52 -94 58 -100 5 -5 -12 31 -38 80 -26 50 -52 95
-58 100 -5 6 12 -30 38 -80z"/>
<path d="M1035 2505 c26 -49 52 -94 58 -100 5 -5 -12 31 -38 80 -26 50 -52 95
-58 100 -5 6 12 -30 38 -80z"/>
<path d="M2105 2430 c-43 -78 -76 -142 -74 -143 114 -77 245 -223 307 -344 20
-39 38 -70 40 -68 5 5 -47 104 -81 155 -52 76 -126 157 -193 211 l-65 51 42
77 c23 42 58 104 77 139 18 34 32 62 29 62 -3 0 -40 -63 -82 -140z"/>
<path d="M1468 2453 c17 -2 47 -2 65 0 17 2 3 4 -33 4 -36 0 -50 -2 -32 -4z"/>
<path d="M1255 2425 c-53 -17 -34 -18 35 0 30 7 44 13 30 13 -14 0 -43 -5 -65
-13z"/>
<path d="M1710 2425 c30 -8 60 -14 65 -14 20 2 -71 27 -95 27 -14 0 0 -6 30
-13z"/>
<path d="M1443 2303 c31 -2 83 -2 115 0 31 2 5 3 -58 3 -63 0 -89 -1 -57 -3z"/>
<path d="M1797 2247 c21 -12 21 -13 -37 -117 -33 -58 -63 -104 -67 -103 -62
13 -66 13 -29 -2 22 -8 40 -14 41 -13 1 2 30 53 63 113 55 99 59 111 44 123
-8 6 -21 12 -26 12 -6 -1 -1 -6 11 -13z"/>
<path d="M1250 2113 c23 -43 46 -82 50 -86 4 -5 36 -2 71 7 59 15 33 15 -36 1
-29 -6 -31 -4 -73 74 -24 45 -46 81 -49 81 -2 0 14 -35 37 -77z"/>
<path d="M935 2107 c-62 -64 -153 -198 -171 -252 -3 -11 14 15 38 57 25 42 61
99 81 126 38 52 120 132 135 132 5 0 41 -46 79 -103 l71 -102 -48 -48 c-41
-41 -131 -188 -130 -214 0 -4 20 30 45 76 24 46 66 107 94 135 l50 51 -75 108
c-41 59 -80 107 -87 107 -6 0 -43 -33 -82 -73z"/>
<path d="M321 2061 c-28 -59 -51 -117 -50 -127 0 -12 4 -9 9 10 16 51 93 206
103 206 6 0 72 -39 147 -87 l138 -86 -36 -74 c-19 -41 -33 -75 -31 -78 2 -2
20 32 41 76 l36 79 -132 83 c-73 47 -142 89 -153 95 -19 10 -24 3 -72 -97z"/>
<path d="M1901 2060 c-34 -61 -61 -114 -61 -118 0 -3 22 -29 49 -57 28 -27 66
-77 85 -109 20 -33 36 -55 36 -49 0 19 -77 128 -119 168 -22 21 -41 43 -41 47
0 4 26 55 59 113 l58 106 75 -70 c41 -39 92 -95 113 -126 42 -60 57 -73 28
-24 -23 40 -133 159 -183 199 l-38 30 -61 -110z"/>
<path d="M116 1987 c16 -9 19 -17 13 -32 -4 -11 -8 -27 -8 -35 0 -8 6 1 14 20
11 30 11 37 -3 48 -9 6 -21 12 -26 12 -6 -1 -1 -6 10 -13z"/>
<path d="M1458 1973 c23 -2 61 -2 85 0 23 2 4 4 -43 4 -47 0 -66 -2 -42 -4z"/>
<path d="M1340 1954 c0 -4 14 -31 31 -60 19 -34 37 -54 47 -53 14 1 14 2 2 5
-23 7 -73 101 -58 107 8 3 6 6 -4 6 -10 1 -18 -2 -18 -5z"/>
<path d="M100 1850 c-7 -28 -10 -53 -8 -55 3 -3 10 18 16 47 7 28 11 53 8 55
-2 2 -9 -19 -16 -47z"/>
<path d="M389 1875 c29 -14 55 -24 58 -22 2 3 -15 12 -39 22 -69 28 -78 27
-19 0z"/>
<path d="M2215 1870 c9 -18 28 -60 41 -94 12 -34 23 -55 24 -48 0 19 -60 161
-72 168 -5 3 -2 -8 7 -26z"/>
<path d="M1157 1835 c-41 -40 -97 -122 -97 -141 0 -4 14 14 31 42 17 27 49 68
72 91 l41 42 29 -50 29 -51 -30 -32 c-16 -17 -35 -42 -41 -56 l-12 -25 18 25
c10 13 31 39 46 57 l28 32 -31 55 c-18 31 -33 56 -35 56 -2 0 -23 -20 -48 -45z"/>
<path d="M1763 1824 l-32 -47 32 -42 c18 -24 38 -51 45 -61 10 -16 11 -15 1 6
-7 14 -25 41 -40 61 l-29 36 31 43 31 42 30 -28 c17 -16 48 -56 69 -88 22 -33
39 -55 39 -50 0 25 -118 174 -138 174 -4 0 -21 -21 -39 -46z"/>
<path d="M1468 1853 c17 -2 47 -2 65 0 17 2 3 4 -33 4 -36 0 -50 -2 -32 -4z"/>
<path d="M509 1825 c29 -14 55 -24 58 -22 2 3 -15 12 -39 22 -69 28 -78 27
-19 0z"/>
<path d="M736 1784 c-9 -26 -16 -52 -15 -58 0 -6 9 13 20 43 10 30 17 56 15
58 -2 2 -11 -17 -20 -43z"/>
<path d="M1506 1770 c80 -11 123 -30 174 -76 60 -54 83 -105 90 -199 l7 -80 1
70 c4 158 -111 281 -271 290 l-62 4 61 -9z"/>
<path d="M1309 1713 c-35 -30 -89 -100 -89 -116 0 -6 13 9 29 34 15 25 46 60
67 77 21 18 36 32 32 32 -4 0 -21 -12 -39 -27z"/>
<path d="M2017 1690 c3 -14 12 -47 20 -75 l13 -50 -5 43 c-3 24 -12 58 -20 75
-10 22 -13 24 -8 7z"/>
<path d="M3 1615 c0 -33 2 -45 4 -27 2 18 2 45 0 60 -2 15 -4 0 -4 -33z"/>
<path d="M2993 1615 c0 -33 2 -45 4 -27 2 18 2 45 0 60 -2 15 -4 0 -4 -33z"/>
<path d="M64 1500 c0 -80 2 -112 3 -72 2 39 2 105 0 145 -1 39 -3 7 -3 -73z"/>
<path d="M2934 1500 c0 -80 2 -112 3 -72 2 39 2 105 0 145 -1 39 -3 7 -3 -73z"/>
<path d="M694 1500 c0 -63 1 -89 3 -57 2 31 2 83 0 115 -2 31 -3 5 -3 -58z"/>
<path d="M2304 1500 c0 -63 1 -89 3 -57 2 31 2 83 0 115 -2 31 -3 5 -3 -58z"/>
<path d="M1023 1500 c0 -47 2 -66 4 -42 2 23 2 61 0 85 -2 23 -4 4 -4 -43z"/>
<path d="M1206 1558 c-3 -13 -5 -48 -4 -78 1 -52 1 -51 8 20 8 79 7 96 -4 58z"/>
<path d="M2803 1505 c0 -44 2 -61 4 -37 2 23 2 59 0 80 -2 20 -4 1 -4 -43z"/>
<path d="M193 1500 c0 -41 2 -58 4 -37 2 20 2 54 0 75 -2 20 -4 3 -4 -38z"/>
<path d="M543 1500 c0 -36 2 -50 4 -32 2 17 2 47 0 65 -2 17 -4 3 -4 -33z"/>
<path d="M1143 1500 c0 -36 2 -50 4 -32 2 17 2 47 0 65 -2 17 -4 3 -4 -33z"/>
<path d="M2453 1500 c0 -36 2 -50 4 -32 2 17 2 47 0 65 -2 17 -4 3 -4 -33z"/>
<path d="M1852 1488 l2 -53 3 48 4 47 54 0 54 0 4 -57 3 -58 2 63 2 62 -65 0
-65 0 2 -52z"/>
<path d="M3 1385 c0 -33 2 -45 4 -27 2 18 2 45 0 60 -2 15 -4 0 -4 -33z"/>
<path d="M2993 1385 c0 -33 2 -45 4 -27 2 18 2 45 0 60 -2 15 -4 0 -4 -33z"/>
<path d="M1735 1344 c-24 -44 -76 -91 -129 -115 -23 -10 -34 -19 -26 -19 20 0
77 35 113 69 31 28 72 89 65 96 -2 2 -12 -12 -23 -31z"/>
<path d="M1244 1333 c21 -41 104 -113 130 -113 6 0 -11 13 -37 29 -25 17 -58
48 -73 70 -31 47 -41 54 -20 14z"/>
<path d="M562 1320 c0 -24 25 -115 27 -95 0 6 -6 35 -14 65 -7 30 -13 44 -13
30z"/>
<path d="M1194 1315 c8 -16 26 -41 40 -54 32 -30 32 -32 0 -87 l-27 -45 -35
33 c-19 18 -52 60 -73 92 -44 67 -52 67 -13 0 27 -45 107 -134 121 -134 4 0
21 24 37 54 l30 55 -35 39 c-19 21 -40 47 -47 58 -7 11 -6 6 2 -11z"/>
<path d="M1776 1287 c-29 -40 -32 -46 -11 -27 23 21 62 80 53 80 -2 0 -20 -24
-42 -53z"/>
<path d="M1911 1268 c-25 -43 -98 -128 -111 -128 -4 0 -13 14 -20 30 -7 17
-17 33 -22 36 -5 3 0 -12 11 -35 12 -23 27 -41 33 -41 24 0 150 162 136 175
-2 2 -14 -15 -27 -37z"/>
<path d="M720 1272 c0 -19 60 -161 72 -168 5 -3 2 8 -7 26 -9 18 -28 60 -41
94 -12 34 -23 55 -24 48z"/>
<path d="M990 1274 c0 -21 64 -111 118 -166 53 -54 55 -59 44 -85 -11 -26 -11
-27 3 -9 8 11 15 24 15 30 0 6 -24 35 -54 66 -30 30 -71 82 -90 114 -20 33
-36 55 -36 50z"/>
<path d="M1954 1193 c-10 -16 -41 -53 -71 -84 -49 -52 -52 -57 -37 -75 15 -19
15 -19 5 1 -8 17 -1 29 48 80 51 53 89 105 78 105 -3 0 -13 -12 -23 -27z"/>
<path d="M2228 1160 c-14 -33 -24 -60 -22 -60 7 0 57 111 52 115 -2 2 -16 -23
-30 -55z"/>
<path d="M92 1195 c0 -21 25 -107 27 -90 0 6 -6 33 -13 60 -8 28 -14 41 -14
30z"/>
<path d="M2892 1158 c-7 -28 -11 -53 -8 -55 2 -2 9 19 16 47 7 28 10 53 8 55
-3 3 -10 -18 -16 -47z"/>
<path d="M606 1160 c20 -71 95 -197 172 -288 43 -51 141 -140 178 -160 15 -8
11 -21 -35 -106 -29 -53 -50 -96 -47 -96 11 0 108 192 100 199 -5 4 -40 32
-78 62 -92 73 -187 193 -247 314 -28 55 -47 89 -43 75z"/>
<path d="M241 1154 c-1 -15 40 -136 45 -131 2 2 -7 35 -20 73 -14 38 -25 64
-25 58z"/>
<path d="M1378 1110 c-30 -54 -34 -70 -17 -70 5 0 7 5 4 10 -7 12 29 78 53 98
13 10 13 12 1 12 -8 0 -26 -23 -41 -50z"/>
<path d="M1583 1153 c9 -2 29 -25 44 -50 21 -37 24 -47 12 -54 -11 -7 -11 -9
4 -9 24 0 22 14 -10 71 -20 35 -34 49 -48 48 -17 -1 -17 -2 -2 -6z"/>
<path d="M2732 1092 c-46 -141 -150 -326 -250 -442 l-31 -35 -120 120 c-104
103 -119 122 -108 136 6 9 29 38 49 65 39 50 113 183 106 189 -2 2 -20 -29
-41 -68 -20 -40 -60 -101 -88 -136 l-51 -64 127 -126 126 -126 41 45 c57 63
128 171 175 265 44 87 96 222 91 237 -2 5 -14 -22 -26 -60z"/>
<path d="M1468 1143 c17 -2 47 -2 65 0 17 2 3 4 -33 4 -36 0 -50 -2 -32 -4z"/>
<path d="M817 1058 c23 -42 207 -228 225 -228 7 0 32 36 56 80 24 44 41 80 39
80 -3 0 -24 -34 -46 -75 -23 -41 -45 -75 -50 -75 -18 0 -159 140 -196 195 -43
61 -56 72 -28 23z"/>
<path d="M2165 1048 c-34 -51 -115 -139 -167 -179 l-37 -30 -46 86 c-26 47
-49 85 -51 85 -3 0 16 -40 43 -90 26 -49 52 -90 56 -90 15 0 201 193 220 228
26 46 15 40 -18 -10z"/>
<path d="M1458 1023 c23 -2 61 -2 85 0 23 2 4 4 -43 4 -47 0 -66 -2 -42 -4z"/>
<path d="M290 1007 c0 -16 85 -175 133 -247 96 -144 368 -390 395 -357 15 18
53 97 47 97 -2 0 -16 -23 -30 -50 l-26 -51 -62 43 c-83 57 -242 216 -303 303
-27 38 -72 114 -101 170 -29 55 -52 97 -53 92z"/>
<path d="M151 997 c-1 -12 41 -108 45 -104 3 2 -7 28 -20 58 -14 30 -25 50
-25 46z"/>
<path d="M2822 948 c-12 -28 -20 -53 -18 -55 2 -2 13 19 25 48 12 28 21 53 19
55 -3 2 -14 -20 -26 -48z"/>
<path d="M1630 969 c-36 -10 -56 -18 -44 -18 11 -1 41 5 66 13 l45 13 42 -78
c23 -44 45 -79 48 -79 5 0 -75 151 -86 160 -3 3 -35 -2 -71 -11z"/>
<path d="M1287 945 c-21 -43 -14 -47 8 -4 14 27 20 30 48 25 25 -5 27 -4 12 3
-36 17 -51 12 -68 -24z"/>
<path d="M1468 943 c18 -2 45 -2 60 0 15 2 0 4 -33 4 -33 0 -45 -2 -27 -4z"/>
<path d="M1222 828 l-41 -73 37 -17 c20 -10 44 -17 52 -17 8 0 -4 7 -27 16
-24 8 -43 19 -43 23 0 5 16 39 36 75 20 36 34 65 31 65 -3 0 -23 -33 -45 -72z"/>
<path d="M2720 749 c-50 -84 -111 -162 -194 -247 l-60 -62 25 -26 26 -25 79
84 c44 46 107 124 140 173 60 87 109 174 99 174 -2 0 -14 -19 -26 -42 -39 -78
-138 -213 -215 -297 l-77 -82 -20 20 -21 20 75 78 c41 43 95 107 120 143 51
71 104 160 96 160 -3 0 -24 -32 -47 -71z"/>
<path d="M186 770 c33 -70 141 -216 224 -303 92 -97 277 -247 304 -247 3 0 12
13 20 29 l15 28 -72 49 c-129 88 -251 214 -390 404 -18 25 -18 25 -2 -5 65
-113 251 -310 381 -401 72 -50 76 -58 48 -93 -1 -1 -38 21 -81 50 -118 81
-286 254 -368 380 -39 58 -76 114 -83 125 -7 10 -5 3 4 -16z"/>
<path d="M2098 765 c-15 -13 -37 -30 -49 -39 -22 -15 -22 -15 -4 -56 10 -23
23 -43 27 -47 5 -3 0 13 -11 36 -12 22 -21 42 -21 43 0 2 20 20 43 40 l44 36
122 -122 123 -123 -82 -62 c-45 -34 -85 -59 -90 -56 -5 3 -32 48 -60 100 -28
52 -54 95 -56 95 -5 0 64 -130 103 -195 11 -19 13 -18 66 18 30 21 71 52 91
70 l37 32 -128 127 -128 127 -27 -24z"/>
<path d="M1443 693 c31 -2 83 -2 115 0 31 2 5 3 -58 3 -63 0 -89 -1 -57 -3z"/>
<path d="M1081 570 c-18 -33 -30 -60 -27 -60 3 0 15 19 27 43 12 23 28 50 37
60 8 9 11 17 5 17 -6 0 -25 -27 -42 -60z"/>
<path d="M1881 623 c9 -2 25 -22 34 -44 10 -22 22 -42 27 -45 5 -4 -2 17 -16
45 -17 33 -32 51 -44 50 -15 -1 -15 -2 -1 -6z"/>
<path d="M1255 575 c22 -8 51 -13 65 -13 14 0 0 6 -30 13 -69 18 -88 17 -35 0z"/>
<path d="M1467 543 c26 -3 33 -9 36 -31 4 -24 4 -24 6 6 1 31 0 32 -36 30 -37
-1 -37 -1 -6 -5z"/>
<path d="M1999 426 c28 -51 51 -96 51 -99 0 -5 -37 -20 -185 -76 l-30 -11 30
6 c43 8 184 64 190 75 6 9 -91 199 -101 199 -3 0 17 -42 45 -94z"/>
<path d="M996 416 c-25 -46 -46 -89 -46 -94 0 -11 133 -66 185 -77 17 -3 -12
10 -64 29 -52 20 -99 40 -104 45 -6 6 9 42 38 95 26 47 44 86 42 86 -3 0 -26
-38 -51 -84z"/>
<path d="M1513 380 c0 -47 2 -66 4 -42 2 23 2 61 0 85 -2 23 -4 4 -4 -43z"/>
<path d="M1520 236 c0 -35 0 -35 -52 -39 l-53 -3 58 -2 57 -2 0 40 c0 22 -2
40 -5 40 -3 0 -5 -16 -5 -34z"/>
<path d="M920 181 c19 -10 46 -21 60 -25 14 -3 1 5 -29 19 -62 29 -83 33 -31
6z"/>
<path d="M2045 174 c-27 -13 -39 -21 -25 -18 29 7 100 43 85 43 -5 0 -32 -12
-60 -25z"/>
<path d="M1135 105 c22 -8 49 -13 60 -13 11 0 -2 6 -30 14 -63 17 -84 16 -30
-1z"/>
<path d="M1442 63 l87 -4 4 -32 c5 -31 5 -31 3 3 l-1 35 -90 1 -90 0 87 -3z"/>
<path d="M1358 3 c18 -2 45 -2 60 0 15 2 0 4 -33 4 -33 0 -45 -2 -27 -4z"/>
</g>
</svg>
